<?xml version="1.0" encoding="UTF-8"?>
<svg id="Lag_3" data-name="Lag 3" xmlns="http://www.w3.org/2000/svg" viewBox="0 0 96.73 93.82">
  <defs>
    <style>
      .cls-1 {
        stroke: #29285e;
      }

      .cls-1, .cls-2 {
        fill: none;
      }

      .cls-1, .cls-2, .cls-3 {
        stroke-width: 2px;
      }

      .cls-4 {
        fill: #ffce0a;
      }

      .cls-5 {
        fill: #f5b753;
      }

      .cls-6 {
        fill: #7ebb48;
      }

      .cls-2, .cls-3 {
        stroke: #e84138;
      }

      .cls-3, .cls-7 {
        fill: #e84138;
      }

      .cls-8 {
        fill: #185767;
      }

      .cls-9 {
        fill: #7c7e7e;
      }

      .cls-10 {
        fill: #ef7a29;
      }

      .cls-11 {
        fill: #135767;
      }

      .cls-12 {
        fill: #25723a;
      }

      .cls-13 {
        fill: #437fb9;
      }

      .cls-14 {
        fill: #e52628;
      }

      .cls-15 {
        fill: #be202e;
      }

      .cls-16 {
        fill: #d6edf2;
      }

      .cls-17 {
        fill: #255479;
      }

      .cls-18 {
        fill: #74388d;
      }

      .cls-19 {
        fill: #e6c94c;
      }
    </style>
  </defs>
  <g>
    <rect class="cls-16" x="29.64" y="16.47" width="51.51" height="57.66"/>
    <rect class="cls-11" x="29.64" y="16.47" width="51.51" height="5.22"/>
    <circle class="cls-14" cx="32.19" cy="19.08" r="1.82"/>
    <circle class="cls-4" cx="36.66" cy="19.08" r="1.82"/>
    <circle class="cls-6" cx="41.12" cy="19.08" r="1.82"/>
    <rect class="cls-13" x="58.48" y="27" width="18.5" height="16.31"/>
    <rect class="cls-13" x="32.19" y="47.27" width="44.79" height="1.8"/>
    <rect class="cls-13" x="32.19" y="50.28" width="44.79" height="1.8"/>
    <rect class="cls-13" x="32.19" y="53.29" width="44.79" height="1.8"/>
    <rect class="cls-13" x="32.19" y="27" width="23.2" height="1.93"/>
    <rect class="cls-13" x="32.19" y="30.02" width="23.2" height="1.93"/>
    <rect class="cls-13" x="32.19" y="33.12" width="23.2" height="1.93"/>
  </g>
  <path class="cls-12" d="M80.95,56.29c-6.61,0-11.98,5.36-11.98,11.98s5.36,11.98,11.98,11.98,11.98-5.36,11.98-11.98-5.36-11.98-11.98-11.98ZM87.7,70.13h-5.17v4.9h-3.34v-4.9h-5.01v-3.34h5.01v-5.27h3.34v5.27h5.17v3.34Z"/>
  <g>
    <path class="cls-13" d="M18.28,39.87h21.42c3.66,0,6.63,2.97,6.63,6.63v14.26H11.63v-14.25c0-3.67,2.98-6.65,6.65-6.65Z"/>
    <rect class="cls-16" x="20.05" y="34.48" width="17.88" height="31.68" transform="translate(79.3 21.34) rotate(90)"/>
    <polygon class="cls-13" points="51.85 72.15 6.3 72.15 11.63 60.77 46.33 60.77 51.85 72.15"/>
    <polygon class="cls-16" points="10.11 67.67 12.59 62.28 45.39 62.28 48.26 67.67 10.11 67.67"/>
    <path class="cls-17" d="M50.28,73.77H7.89c-.35,0-.67-.18-.86-.47l-.72-1.14h45.55l-.71,1.14c-.19.3-.51.48-.87.48Z"/>
    <rect class="cls-16" x="25.92" y="68.66" width="6.13" height="2.5"/>
    <path class="cls-8" d="M47.6,42.4h-3.29c-1,0-1.82.81-1.82,1.82v3.29c0,1,.81,1.82,1.82,1.82h3.29c1,0,1.82-.81,1.82-1.82v-3.29c0-1-.81-1.82-1.82-1.82ZM44.45,47.81v-3.9l3.48,1.95-3.48,1.95Z"/>
    <path class="cls-11" d="M4.02,48.05c-.8.14-1.33.9-1.19,1.7l1.27,7.21c.14.8.9,1.33,1.7,1.19l2.21-.39-.58-3.29-1.19.21-.31-1.76,1.19-.21-.13-.76c-.35-1.96.38-3.03,2.31-3.37.37-.06,1.01-.1,1.28-.08l.28,1.6c-.14.01-.38.04-.67.1-.95.17-1.25.59-1.08,1.52l.11.63,1.88-.33v1.82s-1.58.28-1.58.28l.58,3.29,2.91-.51c.8-.14,1.33-.9,1.19-1.7l-1.27-7.21c-.14-.8-.9-1.33-1.7-1.19l-7.21,1.27Z"/>
    <path class="cls-11" d="M20.6,36.11c-.44.05-.73.45-.67.87.07.43.48.73.91.68h0c.44-.05.73-.45.67-.87s-.48-.73-.91-.68ZM22.96,36.14c-.04-.1-.1-.2-.17-.28-.2-.21-.74-.47-1.09-.63-.06-.03-.11-.05-.15-.07s-.1-.05-.15-.08c-.34-.17-.88-.43-1.17-.46-.11,0-.22,0-.33.04s-.2.09-.28.16c-.21.19-.45.71-.61,1.05-.03.05-.05.1-.07.15s-.04.09-.07.14c-.16.33-.42.85-.44,1.13,0,.11,0,.22.05.32s.1.2.17.28c.2.21.74.47,1.09.63.06.03.11.05.15.07s.1.05.15.08c.34.17.88.43,1.17.46.11,0,.22,0,.33-.04s.2-.09.28-.16c.21-.19.45-.71.61-1.05.03-.06.05-.11.07-.15s.04-.09.07-.15c.16-.33.42-.85.43-1.13h0c0-.11,0-.22-.05-.32h0ZM21.77,36.29c.35.58.17,1.31-.41,1.64-.58.33-1.34.13-1.69-.45h0c-.35-.58-.17-1.31.41-1.64s1.34-.13,1.69.45h0ZM22.17,36.46s-.04-.1-.04-.16.02-.11.06-.15.08-.08.13-.09.11-.02.17,0,.11.04.14.09.06.09.07.15,0,.11-.02.16c-.02.03-.04.06-.07.09s-.06.04-.09.05-.07.02-.11.01-.07-.01-.11-.03h0c-.05-.02-.09-.06-.12-.11h0ZM24.77,36.25c.22-.46.01-1.03-.47-1.26l-4.35-2.09c-.48-.23-1.05-.04-1.27.42l-2.02,4.2c-.22.46-.01,1.03.47,1.26l4.35,2.09c.48.23,1.05.04,1.27-.42l2.02-4.2ZM21.69,39.5c-.37.12-.72.05-1.07-.1-.37-.15-1.44-.67-1.79-.86-.34-.18-.61-.41-.75-.78s-.07-.7.07-1.05c.15-.36.65-1.39.83-1.73.18-.33.4-.59.77-.71s.72-.05,1.07.1c.37.15,1.44.67,1.79.86.34.18.61.41.75.78.14.37.07.7-.07,1.05-.15.35-.64,1.39-.83,1.73-.18.33-.4.59-.77.71h0Z"/>
    <g>
      <rect class="cls-10" x="31.27" y="36.83" width="9.5" height="6.12" transform="translate(16.72 -10.27) rotate(21.04)"/>
      <path class="cls-5" d="M32.69,35.32c-.08.04-.02.29.14.56.16.27.45.67.78,1.15.69.87,1.57,2.6,2.37,3.01h.03c.88.24,2.54-.41,3.64-.6.67-.16,1.24-.29,1.56-.39.23-.07.36-.25.34-.32"/>
    </g>
    <rect class="cls-9" x="13.86" y="57.85" width="14.56" height=".64"/>
    <rect class="cls-14" x="15.08" y="57.3" width="1.22" height=".54"/>
    <rect class="cls-10" x="16.98" y="50.72" width="1.22" height="7.12"/>
    <rect class="cls-11" x="19.02" y="52.87" width="1.22" height="4.98"/>
    <rect class="cls-17" x="20.8" y="55.36" width="1.22" height="2.49"/>
    <rect class="cls-12" x="22.64" y="51.85" width="1.22" height="5.99"/>
    <rect class="cls-18" x="24.46" y="56.76" width="1.22" height="1.09"/>
    <rect class="cls-19" x="26.23" y="53.96" width="1.22" height="3.89"/>
    <g>
      <rect class="cls-2" x="44.76" y="51.7" width="9.31" height="7.32" rx="3.66" ry="3.66" transform="translate(27.35 -15.49) rotate(24.46)"/>
      <circle class="cls-3" cx="52.87" cy="54.62" r=".57"/>
      <polygon class="cls-15" points="50.63 54.99 47.3 57.37 51.03 59.06 50.63 54.99"/>
      <polygon class="cls-7" points="48.17 55.46 46.2 56.87 48.4 57.87 48.17 55.46"/>
    </g>
    <rect class="cls-9" x="29.64" y="57.81" width="14.93" height=".74"/>
    <polyline class="cls-1" points="30.04 57.14 32.46 55.17 34.36 57.14 37.31 53.58 39.89 57.14 42.84 51.83"/>
    <polyline class="cls-1" points="43.61 53.91 42.84 51.83 40.77 52.62"/>
  </g>
</svg>