<?xml version="1.0" encoding="UTF-8"?>
<svg id="Lag_1" data-name="Lag 1" xmlns="http://www.w3.org/2000/svg" viewBox="0 0 96.73 72.97">
  <defs>
    <style>
      .cls-1 {
        stroke: #29285e;
      }

      .cls-1, .cls-2 {
        fill: none;
      }

      .cls-1, .cls-2, .cls-3 {
        stroke-width: 2px;
      }

      .cls-4 {
        fill: #f5b753;
      }

      .cls-2, .cls-3 {
        stroke: #e84138;
      }

      .cls-3, .cls-5 {
        fill: #e84138;
      }

      .cls-6 {
        fill: #185767;
      }

      .cls-7 {
        fill: #7c7e7e;
      }

      .cls-8 {
        fill: #ef7a29;
      }

      .cls-9 {
        fill: #135767;
      }

      .cls-10 {
        fill: #25723a;
      }

      .cls-11 {
        fill: #437fb9;
      }

      .cls-12 {
        fill: #e52628;
      }

      .cls-13 {
        fill: #be202e;
      }

      .cls-14 {
        fill: #d6edf2;
      }

      .cls-15 {
        fill: #255479;
      }

      .cls-16 {
        fill: #74388d;
      }

      .cls-17 {
        fill: #e6c94c;
      }
    </style>
  </defs>
  <path class="cls-11" d="M23.01,13.11h51.06c3.66,0,6.63,2.97,6.63,6.63v32.11H16.36V19.76c0-3.67,2.98-6.65,6.65-6.65Z"/>
  <rect class="cls-14" x="31.96" y="3.11" width="33.15" height="58.75" transform="translate(81.02 -16.05) rotate(90)"/>
  <polygon class="cls-11" points="90.94 72.97 6.48 72.97 16.36 51.86 80.7 51.86 90.94 72.97"/>
  <polygon class="cls-14" points="13.54 64.66 18.14 54.65 78.95 54.65 84.28 64.66 13.54 64.66"/>
  <rect class="cls-14" x="42.85" y="66.49" width="11.36" height="4.64"/>
  <path class="cls-6" d="M83.06,17.8h-6.1c-1.86,0-3.37,1.51-3.37,3.37v6.1c0,1.86,1.51,3.37,3.37,3.37h6.1c1.86,0,3.37-1.51,3.37-3.37v-6.1c0-1.86-1.51-3.37-3.37-3.37ZM77.22,27.83v-7.23l6.46,3.62-6.46,3.62Z"/>
  <path class="cls-9" d="M2.25,28.27c-1.48.26-2.46,1.67-2.2,3.15l2.36,13.38c.26,1.48,1.67,2.46,3.15,2.2l4.11-.72-1.07-6.09-2.21.39-.58-3.27,2.21-.39-.25-1.41c-.64-3.64.71-5.62,4.29-6.25.68-.12,1.87-.19,2.38-.14l.52,2.96c-.26.02-.7.08-1.24.18-1.76.31-2.32,1.09-2.01,2.82l.2,1.16,3.49-.62-.03,3.38-2.9.51,1.07,6.09,5.39-.95c1.48-.26,2.46-1.67,2.2-3.15l-2.36-13.38c-.26-1.48-1.67-2.46-3.15-2.2l-13.38,2.36Z"/>
  <path class="cls-9" d="M32.98,6.13c-.81.1-1.36.83-1.24,1.62.13.79.88,1.36,1.69,1.25h0c.81-.1,1.36-.83,1.24-1.62s-.88-1.36-1.69-1.25ZM37.37,6.19c-.07-.19-.18-.37-.32-.51-.37-.39-1.37-.86-2.02-1.16-.1-.05-.2-.09-.28-.13s-.18-.09-.29-.14c-.64-.32-1.62-.8-2.17-.85-.21-.02-.41,0-.6.07s-.37.17-.52.3c-.39.35-.84,1.32-1.14,1.94-.05.1-.09.19-.13.27s-.08.17-.13.27c-.3.62-.78,1.58-.81,2.1-.01.2.02.4.09.59s.18.37.32.51c.37.39,1.37.86,2.02,1.16.1.05.2.09.28.13s.18.09.29.14c.64.32,1.62.8,2.17.85.21.02.41,0,.6-.07s.37-.17.52-.3c.39-.35.84-1.31,1.13-1.94.05-.1.09-.2.13-.28s.08-.17.14-.28c.31-.62.78-1.57.81-2.1h0c.01-.2-.02-.4-.09-.59h0ZM35.16,6.46c.65,1.07.31,2.43-.76,3.04-1.07.61-2.48.24-3.13-.83h0c-.66-1.07-.32-2.43.76-3.04s2.48-.24,3.13.83h0ZM35.91,6.78c-.05-.09-.08-.19-.08-.3s.04-.2.1-.28.15-.14.25-.18.21-.04.31,0,.2.08.27.16.12.17.13.27,0,.2-.04.3c-.03.06-.07.12-.12.16s-.11.08-.18.1-.14.03-.21.03-.14-.02-.2-.05h0c-.1-.05-.18-.12-.23-.21h0ZM40.73,6.39c.41-.86.02-1.9-.86-2.33L31.8.18c-.89-.43-1.95-.08-2.36.78l-3.74,7.78c-.41.86-.02,1.9.86,2.33l8.06,3.88c.89.43,1.95.08,2.36-.78l3.74-7.78ZM35.01,12.41c-.69.23-1.33.1-1.99-.18-.68-.28-2.68-1.24-3.33-1.6-.63-.34-1.13-.76-1.39-1.44s-.14-1.3.13-1.94c.27-.66,1.2-2.59,1.54-3.21.33-.61.74-1.09,1.43-1.32s1.33-.1,1.99.18c.68.28,2.68,1.24,3.33,1.6.63.34,1.13.76,1.39,1.44.25.68.14,1.3-.13,1.94-.27.66-1.19,2.58-1.54,3.21-.33.61-.74,1.09-1.43,1.32h0Z"/>
  <g>
    <rect class="cls-8" x="52.78" y="7.46" width="17.61" height="11.35" transform="translate(8.82 -21.23) rotate(21.04)"/>
    <path class="cls-4" d="M55.4,4.68c-.15.07-.03.55.26,1.03.31.5.83,1.25,1.44,2.13,1.28,1.62,2.92,4.83,4.4,5.58l.06.02c1.63.43,4.71-.79,6.75-1.13,1.24-.29,2.3-.53,2.89-.72.43-.14.66-.47.63-.59"/>
  </g>
  <rect class="cls-7" x="20.48" y="46.44" width="26.99" height="1.19"/>
  <rect class="cls-12" x="22.74" y="45.43" width="2.26" height="1.01"/>
  <rect class="cls-8" x="26.27" y="33.23" width="2.26" height="13.21"/>
  <rect class="cls-9" x="30.06" y="37.21" width="2.26" height="9.23"/>
  <rect class="cls-15" x="33.36" y="41.82" width="2.26" height="4.62"/>
  <rect class="cls-10" x="36.78" y="35.32" width="2.26" height="11.12"/>
  <rect class="cls-16" x="40.16" y="44.43" width="2.26" height="2.01"/>
  <rect class="cls-17" x="43.42" y="39.22" width="2.26" height="7.22"/>
  <g>
    <rect class="cls-2" x="77.79" y="35.03" width="17.27" height="13.58" rx="4.23" ry="4.23" transform="translate(25.07 -32.03) rotate(24.46)"/>
    <circle class="cls-3" cx="92.83" cy="40.46" r="1.05"/>
    <polygon class="cls-13" points="88.68 41.14 82.5 45.55 89.41 48.69 88.68 41.14"/>
    <polygon class="cls-5" points="84.11 42.02 80.46 44.63 84.54 46.48 84.11 42.02"/>
  </g>
  <rect class="cls-7" x="49.75" y="46.37" width="27.68" height="1.37"/>
  <polyline class="cls-1" points="50.49 45.13 54.98 41.48 58.5 45.13 63.98 38.53 68.75 45.13 74.23 35.29"/>
  <polyline class="cls-1" points="75.66 39.14 74.23 35.29 70.39 36.75"/>
</svg>