<?xml version="1.0" encoding="UTF-8"?>
<svg id="Lag_2" data-name="Lag 2" xmlns="http://www.w3.org/2000/svg" viewBox="0 0 96.73 93.82">
  <defs>
    <style>
      .cls-1 {
        fill: #ffce0a;
      }

      .cls-2 {
        fill: #010101;
      }

      .cls-3 {
        fill: #7ebb48;
      }

      .cls-4 {
        fill: #804092;
      }

      .cls-5, .cls-6, .cls-7 {
        fill: #231f20;
      }

      .cls-8 {
        fill: #29285e;
      }

      .cls-6, .cls-9 {
        stroke: #231f20;
      }

      .cls-6, .cls-9, .cls-10 {
        stroke-width: 2px;
      }

      .cls-11 {
        fill: #fff;
      }

      .cls-9 {
        fill: none;
      }

      .cls-12 {
        fill: #ef7a29;
      }

      .cls-10 {
        fill: #404042;
        stroke: #404042;
      }

      .cls-7 {
        font-family: ReklameScript-Regular, 'ReklameScript Regular';
        font-size: 10.14px;
      }

      .cls-13 {
        fill: #135767;
      }

      .cls-14 {
        fill: #25723a;
      }

      .cls-15 {
        fill: #437fb9;
      }

      .cls-16 {
        fill: #e52628;
      }

      .cls-17 {
        fill: #be202e;
      }

      .cls-18 {
        fill: #d6edf2;
      }

      .cls-19 {
        letter-spacing: 0em;
      }
    </style>
  </defs>
  <rect class="cls-18" x="16.76" y="15.05" width="63.21" height="70.76"/>
  <rect class="cls-13" x="16.76" y="15.05" width="63.21" height="6.41"/>
  <circle class="cls-16" cx="19.9" cy="18.26" r="2.24"/>
  <circle class="cls-1" cx="25.38" cy="18.26" r="2.24"/>
  <circle class="cls-3" cx="30.85" cy="18.26" r="2.24"/>
  <rect class="cls-15" x="52.16" y="27.97" width="22.7" height="20.01"/>
  <rect class="cls-15" x="19.9" y="52.84" width="54.96" height="2.21"/>
  <rect class="cls-15" x="19.9" y="56.53" width="54.96" height="2.21"/>
  <rect class="cls-15" x="19.9" y="60.23" width="54.96" height="2.21"/>
  <rect class="cls-15" x="19.9" y="27.97" width="28.47" height="2.37"/>
  <rect class="cls-15" x="19.9" y="31.67" width="28.47" height="2.37"/>
  <rect class="cls-15" x="19.9" y="35.48" width="28.47" height="2.37"/>
  <g>
    <path class="cls-8" d="M76.35,38.44l-.26-2.06c-.09.01-1.35.18-2.16-.77-.62-.72-.54-1.59-.52-1.8.16-1.3,1.34-1.91,1.44-1.96l-1.08-1.75c-.67.64-1.61.86-2.42.57-.92-.33-1.27-1.19-1.34-1.39-.45-1.21.29-2.28.36-2.37l-1.91-.98c-.02.07-.4,1.28-1.6,1.6-.99.26-1.78-.29-2.01-.46-1.01-.78-.98-2.03-.98-2.16h-1.96c.02.14.18,1.24-.62,2.11-.11.12-.93.98-2.11.77-.81-.15-1.48-.74-1.75-1.55-.58.34-1.17.69-1.75,1.03.59.73.76,1.71.41,2.54-.05.13-.47,1.08-1.55,1.38-1.14.31-2.03-.39-2.11-.46l-1.08,1.8c.16.07,1.43.65,1.75,2.01.06.26.33,1.4-.46,2.22-.56.57-1.44.77-2.27.52v2.01c.14-.02,1.42-.18,2.32.77.24.26.8.96.67,1.91-.12.84-.74,1.55-1.6,1.85l1.08,1.7c.15-.11,1.18-.81,2.41-.46.24.07,1.2.34,1.55,1.24.31.78.04,1.75-.67,2.42l1.91,1.08c.39-1.1,1.29-1.82,2.22-1.8.85.01,1.44.65,1.6.82.74.8.73,1.78.72,2.01h2.11c-.2-.97.11-1.94.82-2.47.76-.57,1.66-.4,1.85-.36,1.26.24,1.83,1.35,1.91,1.49l1.7-1.24c-.57-.66-.75-1.56-.46-2.34.04-.11.41-1.06,1.44-1.37,1.18-.35,2.12.47,2.16.52l.98-2.01c-.88-.33-1.51-1.06-1.6-1.91-.1-.95.52-1.64.67-1.8.82-.9,1.98-.88,2.16-.88ZM63.36,45.89c-4.44,0-8.04-3.6-8.04-8.04s3.6-8.04,8.04-8.04,8.04,3.6,8.04,8.04-3.6,8.04-8.04,8.04Z"/>
    <g>
      <rect class="cls-9" x="58.6" y="34.13" width="9.52" height="7.49" rx="3.36" ry="3.36"/>
      <circle class="cls-6" cx="66.27" cy="35.73" r=".58"/>
      <polygon class="cls-6" points="64.67 37.32 62.87 40.44 66.47 40.44 64.67 37.32"/>
      <polygon class="cls-10" points="62.24 38.3 61.01 40.44 63.48 40.44 62.24 38.3"/>
    </g>
  </g>
  <g>
    <path class="cls-4" d="M92.37,12.93l-.25-1.97c-.08.01-1.29.17-2.07-.74-.59-.69-.52-1.52-.49-1.72.15-1.24,1.28-1.82,1.38-1.87l-1.03-1.67c-.64.61-1.53.82-2.31.54-.88-.32-1.21-1.14-1.28-1.33-.43-1.16.28-2.17.34-2.26l-1.82-.93c-.02.07-.38,1.22-1.52,1.52-.94.25-1.7-.27-1.92-.44-.96-.74-.94-1.94-.93-2.07h-1.87c.02.13.18,1.18-.59,2.02-.11.12-.89.94-2.02.74-.77-.14-1.41-.71-1.67-1.48-.56.33-1.11.66-1.67.98.57.7.72,1.63.39,2.42-.05.13-.45,1.04-1.48,1.31-1.09.3-1.94-.38-2.02-.44l-1.03,1.72c.16.07,1.37.62,1.67,1.92.06.25.31,1.34-.44,2.11-.53.55-1.37.73-2.16.49v1.92c.13-.02,1.36-.17,2.21.74.23.25.77.92.64,1.82-.11.8-.71,1.48-1.52,1.77l1.03,1.62c.15-.1,1.13-.77,2.3-.44.23.06,1.14.32,1.48,1.18.3.75.04,1.67-.64,2.31l1.82,1.03c.37-1.05,1.23-1.74,2.11-1.72.81.01,1.37.62,1.52.79.7.76.7,1.7.69,1.92h2.02c-.19-.93.11-1.85.79-2.36.73-.55,1.59-.38,1.77-.34,1.2.23,1.75,1.29,1.82,1.43l1.62-1.18c-.55-.63-.72-1.49-.44-2.24.04-.1.39-1.01,1.38-1.3,1.13-.34,2.02.45,2.07.49l.93-1.92c-.84-.31-1.44-1.01-1.52-1.82-.1-.91.5-1.56.64-1.72.79-.86,1.89-.84,2.07-.84ZM79.98,20.05c-4.24,0-7.68-3.44-7.68-7.68s3.44-7.68,7.68-7.68,7.68,3.44,7.68,7.68-3.44,7.68-7.68,7.68Z"/>
    <g>
      <path class="cls-5" d="M75.58,14.5c-.11-.56-.52-3.05,1.32-4.89,1.86-1.86,4.39-1.41,4.9-1.32.29.05,3.46.66,3.84,2.74.2,1.11-.43,2.49-1.2,2.63-.9.17-1.37-1.45-2.85-1.53-.71-.04-1.28.3-1.94.69-.4.23-1.23.73-1.8,1.68-.77,1.27-.47,2.37-.84,2.45-.4.08-1.17-1.15-1.44-2.45Z"/>
      <circle class="cls-11" cx="84.06" cy="10.47" r=".59"/>
      <circle class="cls-11" cx="77.72" cy="10.47" r=".59"/>
      <circle class="cls-11" cx="79.19" cy="9.62" r=".59"/>
      <circle class="cls-11" cx="80.96" cy="9.25" r=".59"/>
      <circle class="cls-11" cx="82.73" cy="9.62" r=".59"/>
    </g>
  </g>
  <g>
    <path class="cls-17" d="M26.39,35.31l-.21-1.69c-.07.01-1.11.15-1.78-.64-.51-.6-.45-1.31-.42-1.48.13-1.07,1.1-1.57,1.19-1.61l-.89-1.44c-.55.52-1.32.71-1.99.47-.76-.27-1.05-.98-1.1-1.14-.37-1,.24-1.87.3-1.95l-1.57-.8c-.02.06-.33,1.05-1.31,1.31-.81.21-1.46-.23-1.65-.38-.83-.64-.81-1.67-.8-1.78h-1.61c.02.11.15,1.02-.51,1.74-.09.1-.77.81-1.74.64-.67-.12-1.22-.61-1.44-1.27-.48.28-.96.56-1.44.85.49.6.62,1.4.34,2.09-.04.11-.39.89-1.27,1.13-.94.26-1.67-.32-1.74-.38l-.89,1.48c.13.06,1.18.53,1.44,1.65.05.22.27,1.15-.38,1.82-.46.47-1.18.63-1.86.42v1.65c.11-.02,1.17-.15,1.91.64.2.21.66.79.55,1.57-.1.69-.61,1.28-1.31,1.52l.89,1.4c.13-.09.97-.67,1.98-.38.2.06.99.28,1.28,1.02.25.64.04,1.44-.55,1.99l1.57.89c.32-.9,1.06-1.49,1.82-1.48.7.01,1.18.53,1.31.68.6.66.6,1.46.59,1.65h1.74c-.17-.8.09-1.6.68-2.03.63-.47,1.37-.33,1.52-.3,1.03.2,1.51,1.11,1.57,1.23l1.4-1.02c-.47-.54-.62-1.28-.38-1.93.03-.09.34-.87,1.19-1.12.97-.29,1.74.39,1.78.42l.8-1.65c-.72-.27-1.24-.87-1.31-1.57-.09-.78.43-1.35.55-1.48.68-.74,1.63-.73,1.78-.72ZM15.72,41.43c-3.65,0-6.61-2.96-6.61-6.61s2.96-6.61,6.61-6.61,6.61,2.96,6.61,6.61-2.96,6.61-6.61,6.61Z"/>
    <path class="cls-2" d="M16.64,31.6c-.21-.06-.44.06-.5.28l-1.62,5.66c-.06.21.06.44.28.5s.44-.06.5-.28l1.62-5.66c.06-.21-.06-.44-.28-.5h0ZM17.65,33.12c-.16.16-.16.41,0,.57l1.13,1.13-1.13,1.13c-.16.16-.16.41,0,.57s.41.16.57,0l1.41-1.41c.16-.16.16-.41,0-.57l-1.41-1.41c-.16-.16-.41-.16-.57,0h0ZM13.78,33.12c-.16-.16-.41-.16-.57,0l-1.41,1.41c-.16.16-.16.41,0,.57l1.41,1.41c.16.16.41.16.57,0s.16-.41,0-.57l-1.13-1.13,1.13-1.13c.16-.16.16-.41,0-.57h0Z"/>
  </g>
  <g>
    <path class="cls-12" d="M42.65,69.53l-.27-2.15c-.09.01-1.41.19-2.26-.81-.65-.76-.57-1.66-.54-1.88.17-1.36,1.4-1.99,1.51-2.04l-1.13-1.83c-.7.66-1.68.9-2.52.59-.97-.35-1.33-1.25-1.4-1.45-.47-1.27.31-2.38.38-2.47l-1.99-1.02c-.02.07-.42,1.34-1.67,1.67-1.03.27-1.86-.3-2.1-.48-1.05-.81-1.03-2.12-1.02-2.26h-2.04c.02.14.19,1.3-.65,2.2-.12.13-.98,1.03-2.2.81-.85-.15-1.55-.77-1.83-1.61-.61.36-1.22.72-1.83,1.08.62.76.79,1.78.43,2.65-.06.14-.49,1.13-1.61,1.44-1.19.32-2.12-.41-2.2-.48l-1.13,1.88c.17.07,1.5.68,1.83,2.1.06.27.34,1.46-.48,2.31-.58.6-1.5.8-2.37.54v2.1c.14-.02,1.48-.19,2.42.81.25.27.84,1.01.7,1.99-.12.88-.77,1.62-1.67,1.94l1.13,1.77c.16-.11,1.23-.85,2.52-.48.25.07,1.25.35,1.62,1.29.32.82.05,1.83-.7,2.53l1.99,1.13c.4-1.14,1.35-1.9,2.31-1.88.89.01,1.5.68,1.67.86.77.83.76,1.86.75,2.1h2.2c-.21-1.01.12-2.03.86-2.58.8-.6,1.74-.42,1.94-.38,1.31.25,1.91,1.41,1.99,1.56l1.77-1.29c-.6-.68-.79-1.62-.48-2.45.04-.11.43-1.1,1.51-1.43,1.24-.37,2.21.49,2.26.54l1.02-2.1c-.92-.34-1.57-1.11-1.67-1.99-.11-1,.54-1.71.7-1.88.86-.94,2.07-.92,2.26-.91ZM29.1,77.31c-4.64,0-8.4-3.76-8.4-8.4s3.76-8.4,8.4-8.4,8.4,3.76,8.4,8.4-3.76,8.4-8.4,8.4Z"/>
    <text class="cls-7" transform="translate(25.18 71.4)"><tspan class="cls-19" x="0" y="0">A</tspan><tspan x="6.25" y="0">a</tspan></text>
  </g>
  <g>
    <path class="cls-14" d="M89.5,83.11l-.22-1.78c-.07.01-1.17.16-1.87-.67-.54-.63-.47-1.38-.45-1.56.14-1.13,1.16-1.65,1.25-1.7l-.94-1.52c-.58.55-1.39.74-2.09.49-.8-.29-1.1-1.03-1.16-1.2-.39-1.05.25-1.97.31-2.05l-1.65-.85c-.02.06-.35,1.11-1.38,1.38-.85.23-1.54-.25-1.74-.4-.87-.68-.85-1.76-.85-1.87h-1.7c.02.12.16,1.07-.54,1.83-.1.11-.81.85-1.83.67-.7-.13-1.28-.64-1.52-1.34-.51.3-1.01.59-1.52.89.51.63.66,1.48.36,2.2-.05.11-.41.94-1.34,1.19-.99.27-1.76-.34-1.83-.4l-.94,1.56c.14.06,1.24.56,1.52,1.74.05.23.28,1.22-.4,1.92-.48.5-1.24.67-1.96.45v1.74c.12-.02,1.23-.15,2.01.67.21.22.69.83.58,1.65-.1.73-.64,1.35-1.38,1.61l.94,1.47c.13-.09,1.02-.7,2.09-.4.21.06,1.04.29,1.35,1.07.27.68.04,1.51-.58,2.1l1.65.94c.34-.95,1.12-1.57,1.92-1.56.74.01,1.24.56,1.38.71.64.69.63,1.54.62,1.74h1.83c-.18-.84.1-1.68.71-2.14.66-.5,1.44-.34,1.61-.31,1.09.21,1.59,1.17,1.65,1.29l1.47-1.07c-.5-.57-.65-1.35-.4-2.03.03-.09.35-.92,1.25-1.18,1.03-.31,1.83.41,1.87.45l.85-1.74c-.76-.28-1.3-.92-1.38-1.65-.09-.83.45-1.42.58-1.56.71-.78,1.72-.76,1.87-.76ZM78.26,89.56c-3.85,0-6.97-3.12-6.97-6.97s3.12-6.97,6.97-6.97,6.97,3.12,6.97,6.97-3.12,6.97-6.97,6.97Z"/>
    <path class="cls-2" d="M81.97,82.59c0,.23-.19.41-.41.41h-.41v2.07s0,.07,0,.1v.21c0,.29-.23.52-.52.52h-.21s-.03,0-.04,0c-.02,0-.04,0-.05,0h-.42s-.31,0-.31,0c-.29,0-.52-.23-.52-.52v-1.14c0-.23-.18-.41-.41-.41h-.83c-.23,0-.41.18-.41.41v1.14c0,.29-.23.52-.52.52h-.72s-.04,0-.06,0c-.02,0-.03,0-.05,0h-.21c-.29,0-.52-.23-.52-.52v-1.45s0-.02,0-.04v-.9h-.41c-.23,0-.41-.18-.41-.41,0-.12.04-.22.13-.31l3.31-2.89c.09-.09.19-.1.28-.1s.19.03.27.09l3.3,2.9c.1.09.16.19.14.31Z"/>
  </g>
</svg>